<?xml version="1.0" standalone="no"?>
<!DOCTYPE svg PUBLIC "-//W3C//DTD SVG 20010904//EN"
 "http://www.w3.org/TR/2001/REC-SVG-20010904/DTD/svg10.dtd">
<svg version="1.0" xmlns="http://www.w3.org/2000/svg"
 width="575.000000pt" height="265.000000pt" viewBox="0 0 575.000000 265.000000"
 preserveAspectRatio="xMidYMid meet">

<g transform="translate(0.000000,265.000000) scale(0.100000,-0.100000)"
fill="#000000" stroke="none">
<path d="M3995 1904 c6 -59 12 -74 40 -104 18 -19 38 -45 44 -57 16 -31 14
-137 -3 -178 -16 -36 -22 -39 -116 -50 -49 -6 -69 -16 -70 -37 0 -13 43 -8 70
7 14 8 36 14 50 14 20 0 17 -3 -15 -14 -69 -25 -84 -68 -37 -111 21 -21 28
-23 30 -11 2 9 -2 26 -8 37 -6 12 -10 24 -7 26 2 2 35 8 73 13 38 5 86 16 107
24 58 25 44 9 -18 -19 -52 -24 -55 -27 -55 -62 0 -20 6 -59 13 -87 l13 -49
-33 -33 c-18 -19 -43 -37 -56 -42 -13 -5 -24 -17 -24 -26 0 -15 18 -16 191
-13 218 4 242 10 277 79 18 36 19 49 11 103 l-9 61 -2 -70 c-1 -53 -6 -77 -22
-100 l-21 -30 8 30 c25 90 4 157 -90 283 -30 40 -64 97 -77 127 -12 30 -31 57
-41 61 -22 7 -48 32 -48 47 0 6 9 1 20 -11 40 -42 95 -20 88 35 -2 20 -12 33
-38 45 -35 18 -35 18 -7 18 29 0 67 -31 67 -55 0 -22 17 -18 30 6 28 51 -15
97 -75 80 -31 -8 -41 -6 -84 22 -58 37 -162 100 -174 106 -5 2 -6 -27 -2 -65z"/>
<path d="M1944 1953 c4 -8 -3 -15 -19 -19 -32 -8 -28 -23 12 -46 26 -16 32
-16 49 -3 18 13 18 15 -15 47 -18 18 -31 28 -27 21z"/>
<path d="M1586 1928 c-37 -34 -487 -719 -484 -737 3 -13 21 -17 93 -19 116 -4
127 0 159 48 l27 40 206 -2 206 -3 12 -35 12 -35 103 -3 c57 -1 108 2 113 7 6
6 -8 61 -38 150 -26 78 -48 147 -49 154 -2 7 -5 19 -8 27 -11 28 -80 253 -82
264 -1 6 -5 17 -9 23 -4 7 -17 38 -28 70 -10 31 -25 61 -32 65 -6 4 -49 8 -94
8 -71 0 -85 -3 -107 -22z m117 -380 c20 -61 34 -115 31 -120 -7 -11 -222 -10
-229 2 -8 12 133 230 149 230 8 0 28 -48 49 -112z"/>
<path d="M1980 1855 c-7 -8 -9 -24 -5 -37 6 -19 5 -21 -6 -10 -18 17 -34 15
-19 -3 7 -8 18 -15 25 -15 17 0 27 -28 20 -51 -5 -14 -2 -17 8 -13 10 3 18 -5
25 -23 17 -43 39 -66 57 -59 23 8 14 29 -16 37 -13 4 -17 8 -9 8 11 1 10 5 -5
13 -29 16 -35 29 -24 50 6 10 7 24 3 31 -4 6 25 -19 65 -58 39 -38 71 -77 71
-86 0 -9 7 -19 15 -23 17 -6 21 9 5 19 -21 13 -8 24 29 23 22 0 44 2 49 6 12
7 54 -43 46 -55 -9 -15 -51 -10 -68 7 -15 14 -16 14 -16 -4 0 -20 33 -32 90
-32 36 0 42 8 25 39 -25 49 -105 112 -196 155 -48 23 -100 54 -113 69 -29 31
-39 33 -56 12z m160 -90 c56 -29 90 -54 72 -55 -15 0 -95 41 -137 70 -28 20
-28 21 -5 14 14 -3 45 -17 70 -29z m-16 -31 c22 -23 33 -44 23 -44 -2 0 -18
16 -37 35 -19 19 -29 35 -23 35 6 0 22 -12 37 -26z m100 -38 c47 -2 45 -26 -3
-26 -31 0 -43 5 -52 22 -10 19 -9 20 7 13 11 -4 32 -8 48 -9z"/>
<path d="M1977 1753 c-4 -3 -7 -11 -7 -17 0 -6 5 -5 12 2 6 6 9 14 7 17 -3 3
-9 2 -12 -2z"/>
<path d="M1924 1688 l-19 -23 23 19 c12 11 22 21 22 23 0 8 -8 2 -26 -19z"/>
<path d="M1990 1704 c0 -6 7 -17 16 -25 21 -17 12 -61 -23 -114 l-26 -40 25
23 25 23 6 -41 c7 -53 12 -58 38 -34 19 17 19 19 2 25 -16 6 -14 8 10 18 32
12 33 19 10 37 -17 12 -16 13 5 14 16 0 22 6 22 21 0 17 -5 20 -25 17 -17 -4
-25 -1 -25 8 0 17 -59 84 -60 68z"/>
<path d="M3183 1500 c-13 -10 -23 -22 -23 -26 0 -4 -12 -21 -27 -37 -16 -17
-22 -27 -15 -23 8 5 12 0 12 -12 0 -11 -7 -22 -15 -26 -11 -4 -15 -19 -13 -53
l1 -48 7 45 c7 43 9 39 15 -20 2 -25 25 -60 39 -60 12 0 59 35 56 42 -1 2 4
16 11 31 9 19 18 26 28 22 13 -5 14 -4 4 6 -7 7 -13 24 -13 39 0 20 2 22 10
10 8 -13 10 -13 10 2 0 9 -4 20 -10 23 -5 3 -10 17 -10 29 0 27 -21 70 -35 73
-6 1 -20 -7 -32 -17z"/>
<path d="M3231 1254 c0 -11 3 -14 6 -6 3 7 2 16 -1 19 -3 4 -6 -2 -5 -13z"/>
<path d="M1202 998 c-44 -66 -132 -213 -132 -221 0 -15 81 -7 86 8 5 11 22 15
69 15 47 0 64 -4 69 -15 3 -9 19 -15 41 -15 39 0 43 12 25 66 -5 16 -21 68
-35 117 l-26 87 -34 0 c-29 0 -38 -6 -63 -42z m63 -110 c7 -26 5 -28 -25 -28
-17 0 -30 3 -28 8 34 69 41 72 53 20z"/>
<path d="M1451 1016 c-14 -15 -25 -42 -28 -69 -7 -60 17 -77 109 -77 56 0 66
-3 62 -15 -5 -12 -25 -15 -94 -15 -82 0 -88 -1 -94 -22 -12 -48 -11 -48 98
-48 94 0 108 2 131 23 32 27 44 92 22 122 -12 16 -30 20 -91 23 -99 5 -98 26
0 30 104 3 114 7 114 42 l0 30 -103 0 c-97 0 -105 -2 -126 -24z"/>
<path d="M1741 1016 c-14 -15 -25 -42 -28 -69 -7 -60 17 -77 109 -77 56 0 66
-3 62 -15 -5 -12 -25 -15 -94 -15 -82 0 -88 -1 -94 -22 -12 -48 -11 -48 98
-48 94 0 108 2 131 23 37 31 45 97 16 126 -17 17 -33 21 -92 21 -52 0 -70 3
-67 13 3 8 29 13 74 15 104 3 114 7 114 42 l0 30 -103 0 c-97 0 -105 -2 -126
-24z"/>
<path d="M2020 1033 c0 -5 -9 -60 -20 -123 -26 -150 -27 -142 17 -138 l38 3
21 128 c11 70 18 129 16 132 -8 8 -72 6 -72 -2z"/>
<path d="M2141 1016 c-14 -15 -25 -42 -28 -69 -7 -60 17 -77 109 -77 56 0 66
-3 62 -15 -5 -12 -25 -15 -94 -15 -82 0 -88 -1 -94 -22 -12 -48 -11 -48 98
-48 94 0 108 2 131 23 37 31 45 97 16 126 -17 17 -33 21 -92 21 -52 0 -70 3
-67 13 3 8 29 13 74 15 104 3 114 7 114 42 l0 30 -103 0 c-97 0 -105 -2 -126
-24z"/>
<path d="M2407 1033 c-4 -3 -7 -19 -7 -35 0 -26 3 -28 40 -28 22 0 40 -1 40
-2 0 -2 -7 -41 -15 -88 -20 -116 -21 -112 22 -108 l38 3 15 95 c14 89 17 95
40 98 62 7 70 11 70 42 l0 30 -118 0 c-65 0 -122 -3 -125 -7z"/>
<path d="M2712 998 c-44 -66 -132 -213 -132 -221 0 -15 81 -7 86 8 5 11 22 15
69 15 47 0 64 -4 69 -15 3 -9 19 -15 41 -15 39 0 43 12 25 66 -5 16 -21 68
-35 117 l-26 87 -34 0 c-29 0 -38 -6 -63 -42z m63 -110 c7 -26 5 -28 -25 -28
-17 0 -30 3 -28 8 34 69 41 72 53 20z"/>
<path d="M2950 1033 c0 -5 -9 -60 -20 -123 -26 -150 -27 -142 17 -138 l38 3
11 68 c6 37 13 69 16 72 3 3 23 -28 44 -70 38 -73 40 -75 77 -75 20 0 37 1 37
3 0 1 9 54 20 117 27 154 27 150 -15 150 -32 0 -35 -3 -41 -37 -3 -21 -9 -54
-13 -73 l-7 -35 -39 72 c-40 73 -40 73 -82 73 -24 0 -43 -3 -43 -7z"/>
<path d="M3277 1029 c-28 -17 -47 -72 -54 -158 -5 -74 -4 -80 16 -90 12 -7 55
-11 104 -9 l82 3 3 33 3 32 -64 0 c-35 0 -66 2 -69 5 -2 3 0 32 5 65 l10 60
69 0 c64 0 69 2 78 26 6 14 10 30 10 35 0 13 -171 11 -193 -2z"/>
<path d="M3500 1033 c0 -5 -9 -60 -20 -123 -11 -63 -20 -121 -20 -128 0 -10
27 -12 118 -10 l117 3 3 33 3 32 -75 0 c-61 0 -76 3 -76 15 0 12 13 15 58 15
63 0 82 11 82 47 0 22 -4 23 -66 23 -48 0 -65 3 -62 13 3 8 31 13 79 15 41 2
77 6 80 10 4 4 9 19 13 35 l6 27 -120 0 c-66 0 -120 -3 -120 -7z"/>
<path d="M3924 1026 c-3 -8 -4 -23 -2 -33 3 -15 15 -18 86 -21 64 -2 82 -6 82
-17 0 -11 -13 -15 -50 -15 -44 0 -52 -3 -62 -25 -14 -32 -7 -38 45 -41 60 -3
59 -3 55 -16 -3 -9 -35 -15 -94 -18 l-89 -5 -3 -32 -3 -33 99 0 c117 0 147 15
157 78 3 20 10 61 16 90 9 44 8 57 -5 77 -16 24 -21 25 -122 25 -82 0 -106 -3
-110 -14z"/>
<path d="M4210 1033 c0 -5 -9 -60 -20 -123 -11 -63 -20 -121 -20 -127 0 -17
178 -18 213 -2 32 14 45 44 59 135 9 55 9 80 0 99 -11 25 -14 25 -122 25 -60
0 -110 -3 -110 -7z m155 -120 c-4 -32 -9 -61 -12 -65 -2 -5 -25 -8 -50 -8
l-45 0 7 58 c4 31 9 60 12 65 2 4 25 7 50 7 l45 0 -7 -57z"/>
<path d="M1106 688 c-13 -48 -8 -58 28 -58 36 0 46 12 46 56 0 21 -5 24 -34
24 -26 0 -35 -5 -40 -22z m52 -15 c-2 -10 -11 -19 -20 -21 -12 -2 -15 2 -11
17 7 25 36 28 31 4z"/>
<path d="M1196 688 c-13 -49 -8 -58 29 -58 41 0 47 17 8 23 l-28 4 28 2 c33 1
36 18 5 24 -20 4 -19 4 5 6 39 2 33 21 -7 21 -26 0 -35 -5 -40 -22z"/>
<path d="M1286 698 c-15 -48 -16 -68 -2 -68 8 0 16 6 19 13 3 9 7 9 18 0 19
-16 129 -12 129 4 0 22 -19 63 -30 63 -5 0 -20 -16 -32 -35 -29 -44 -38 -44
-31 0 6 35 5 35 -31 35 -21 0 -38 -5 -40 -12z m54 -18 c0 -5 -9 -10 -21 -10
-11 0 -17 5 -14 10 3 6 13 10 21 10 8 0 14 -4 14 -10z"/>
<path d="M1460 700 c0 -5 5 -10 10 -10 6 0 10 -13 10 -30 0 -16 4 -30 9 -30 5
0 11 14 15 30 3 19 12 30 22 30 13 0 15 -6 11 -30 -5 -22 -3 -30 8 -30 8 0 15
8 15 18 0 9 3 26 6 38 5 19 1 21 -50 23 -33 1 -56 -3 -56 -9z"/>
<path d="M1587 703 c-17 -17 -6 -42 21 -46 25 -4 25 -4 -5 -6 -18 0 -33 -6
-33 -12 0 -6 16 -9 38 -7 29 2 37 7 37 23 0 12 -9 22 -25 26 -23 6 -22 7 8 8
17 1 32 6 32 11 0 11 -63 14 -73 3z"/>
<path d="M1681 676 c-12 -18 -21 -35 -21 -37 0 -2 20 -4 45 -5 36 -1 45 2 40
13 -3 8 -8 26 -11 39 -9 34 -29 30 -53 -10z"/>
<path d="M1750 700 c0 -5 7 -10 15 -10 11 0 13 -8 9 -30 -4 -19 -2 -30 5 -30
6 0 14 14 18 30 3 17 12 30 19 30 8 0 14 5 14 10 0 6 -18 10 -40 10 -22 0 -40
-4 -40 -10z"/>
<path d="M1834 675 c-6 -34 -1 -55 11 -43 3 3 9 22 12 42 8 48 -14 48 -23 1z"/>
<path d="M1876 694 c-3 -9 -6 -27 -6 -40 0 -21 5 -24 35 -24 28 0 38 5 47 24
6 14 8 32 5 40 -9 22 -73 22 -81 0z m54 -24 c0 -13 -7 -20 -20 -20 -19 0 -27
20 -13 33 13 14 33 6 33 -13z"/>
<path d="M1976 698 c-15 -49 -16 -68 -1 -68 9 0 15 9 15 23 0 22 0 22 20 -3
22 -29 34 -21 43 28 7 35 -11 46 -20 12 l-6 -21 -14 21 c-16 23 -32 26 -37 8z"/>
<path d="M2120 693 c0 -10 -3 -28 -6 -40 -6 -21 -3 -23 30 -23 30 0 38 5 47
27 14 38 5 53 -36 53 -27 0 -35 -4 -35 -17z m50 -23 c0 -11 -7 -20 -15 -20 -8
0 -15 9 -15 20 0 11 7 20 15 20 8 0 15 -9 15 -20z"/>
<path d="M2210 692 c0 -9 -3 -27 -6 -39 -6 -21 -3 -22 69 -22 55 0 79 4 88 15
15 18 4 31 -31 37 -21 4 -20 4 8 6 17 0 32 5 32 10 0 6 -36 10 -80 10 -69 0
-80 -2 -80 -17z m83 -16 c3 -8 16 -16 29 -18 20 -3 19 -4 -7 -9 -16 -2 -43 -2
-60 2 -23 5 -25 7 -7 8 12 0 22 5 22 10 0 5 -10 12 -22 14 -17 3 -15 5 8 6 19
0 34 -5 37 -13z"/>
<path d="M2384 675 c-6 -34 -1 -55 11 -43 3 3 9 22 12 42 8 48 -14 48 -23 1z"/>
<path d="M2426 698 c-15 -49 -16 -68 -1 -68 9 0 15 9 15 23 l0 22 19 -24 c20
-27 41 -21 41 11 0 15 3 18 13 10 6 -5 23 -12 37 -15 21 -4 20 -4 -7 -6 -18 0
-33 -6 -33 -12 0 -6 16 -9 38 -7 29 2 37 7 37 23 0 12 -9 22 -25 26 l-25 7 28
1 c15 1 27 6 27 11 0 14 -57 13 -66 -1 -5 -8 -9 -8 -14 1 -10 16 -30 4 -30
-18 0 -13 -3 -12 -16 6 -17 25 -33 28 -38 10z"/>
<path d="M2610 693 c0 -10 -3 -28 -6 -40 -6 -21 -3 -23 29 -23 43 0 61 19 20
21 -23 2 -24 2 -5 6 12 2 22 8 22 13 0 5 -10 11 -22 13 -20 4 -20 4 4 6 45 2
43 21 -1 21 -32 0 -41 -4 -41 -17z"/>
<path d="M2696 694 c-3 -9 -6 -27 -6 -40 0 -20 5 -24 30 -24 17 0 30 5 30 10
0 6 -9 10 -21 10 -28 0 -21 34 9 38 32 5 27 22 -7 22 -17 0 -31 -6 -35 -16z"/>
<path d="M2770 700 c0 -5 5 -10 10 -10 6 0 10 -13 10 -30 0 -16 4 -30 9 -30 5
0 11 14 15 30 3 19 12 30 22 30 13 0 15 -6 11 -30 -5 -22 -3 -30 8 -30 8 0 15
8 15 18 0 9 3 26 6 38 5 19 1 21 -50 23 -33 1 -56 -3 -56 -9z"/>
<path d="M2897 703 c-17 -17 -6 -42 21 -46 25 -4 25 -4 -5 -6 -18 0 -33 -6
-33 -12 0 -6 16 -9 38 -7 29 2 37 7 37 23 0 12 -9 22 -25 26 -23 6 -22 7 8 8
17 1 32 6 32 11 0 11 -63 14 -73 3z"/>
<path d="M2991 676 c-12 -18 -21 -35 -21 -37 0 -2 20 -4 45 -5 36 -1 45 2 40
13 -3 8 -8 26 -11 39 -9 34 -29 30 -53 -10z"/>
<path d="M3060 700 c0 -5 7 -10 15 -10 11 0 13 -8 9 -30 -4 -19 -2 -30 5 -30
6 0 14 14 18 30 3 17 12 30 19 30 8 0 14 5 14 10 0 6 -18 10 -40 10 -22 0 -40
-4 -40 -10z"/>
<path d="M3144 675 c-6 -34 -1 -55 11 -43 3 3 9 22 12 42 8 48 -14 48 -23 1z"/>
<path d="M3186 694 c-3 -9 -6 -27 -6 -40 0 -21 5 -24 35 -24 28 0 38 5 47 24
6 14 8 32 5 40 -9 22 -73 22 -81 0z m54 -24 c0 -13 -7 -20 -20 -20 -19 0 -27
20 -13 33 13 14 33 6 33 -13z"/>
<path d="M3286 698 c-15 -49 -16 -68 -1 -68 9 0 15 9 15 23 0 22 0 22 20 -3
22 -29 34 -21 43 28 7 35 -11 46 -20 12 l-6 -21 -14 21 c-16 23 -32 26 -37 8z"/>
<path d="M3430 693 c0 -10 -3 -28 -6 -40 -6 -21 -3 -23 30 -23 30 0 38 5 47
27 14 38 5 53 -36 53 -27 0 -35 -4 -35 -17z m50 -23 c0 -11 -7 -20 -15 -20 -8
0 -15 9 -15 20 0 11 7 20 15 20 8 0 15 -9 15 -20z"/>
<path d="M3520 692 c0 -9 -3 -27 -6 -39 -6 -21 -3 -22 69 -22 55 0 79 4 88 15
15 18 4 31 -31 37 -21 4 -20 4 8 6 17 0 32 5 32 10 0 6 -36 10 -80 10 -69 0
-80 -2 -80 -17z m83 -16 c3 -8 16 -16 29 -18 20 -3 19 -4 -7 -9 -16 -2 -43 -2
-60 2 -23 5 -25 7 -7 8 12 0 22 5 22 10 0 5 -10 12 -22 14 -17 3 -15 5 8 6 19
0 34 -5 37 -13z"/>
<path d="M3694 675 c-6 -34 -1 -55 11 -43 3 3 9 22 12 42 8 48 -14 48 -23 1z"/>
<path d="M3736 698 c-15 -49 -16 -68 -1 -68 9 0 15 9 16 23 l0 22 16 -22 c18
-27 43 -30 43 -5 0 9 3 27 6 40 4 14 2 22 -6 22 -6 0 -14 -9 -17 -20 l-6 -21
-14 21 c-16 23 -32 26 -37 8z"/>
<path d="M3826 688 c-9 -34 -7 -58 4 -58 6 0 10 7 10 15 0 9 9 15 25 15 31 0
33 17 3 23 -20 4 -19 4 5 6 39 2 33 21 -7 21 -26 0 -35 -5 -40 -22z"/>
<path d="M3910 693 c0 -10 -3 -28 -6 -40 -6 -21 -3 -23 29 -23 43 0 61 19 20
21 -23 2 -24 2 -5 6 12 2 22 8 22 13 0 5 -10 11 -22 13 -20 4 -20 4 4 6 45 2
43 21 -1 21 -32 0 -41 -4 -41 -17z"/>
<path d="M3996 694 c-3 -9 -6 -27 -6 -40 0 -20 5 -24 30 -24 17 0 30 5 30 10
0 6 -9 10 -21 10 -28 0 -21 34 9 38 32 5 27 22 -7 22 -17 0 -31 -6 -35 -16z"/>
<path d="M4070 700 c0 -5 5 -10 10 -10 6 0 10 -13 10 -30 0 -16 4 -30 9 -30 5
0 11 14 15 30 3 19 12 30 22 30 13 0 15 -6 11 -30 -5 -22 -3 -30 8 -30 8 0 15
8 15 18 0 9 3 26 6 38 5 19 1 21 -50 23 -33 1 -56 -3 -56 -9z"/>
<path d="M4189 683 c-15 -41 -5 -55 38 -51 30 2 38 8 43 28 10 38 1 50 -36 50
-28 0 -36 -5 -45 -27z m61 -13 c0 -13 -7 -20 -20 -20 -13 0 -20 7 -20 20 0 13
7 20 20 20 13 0 20 -7 20 -20z"/>
<path d="M4290 693 c0 -10 -3 -28 -6 -40 -4 -15 -2 -23 6 -23 6 0 14 9 17 20
5 19 6 19 24 -3 16 -19 20 -20 29 -7 13 19 13 70 0 70 -5 0 -10 -10 -11 -22
l0 -23 -16 23 c-18 26 -43 29 -43 5z"/>
</g>
</svg>
